# xmcd
#
# Track frame offsets:
# 150
# 18565
# 55500
# 68505
# 97540
# 114585
# 140410
# 158155
# 179655
# 209345
# 233285
# 252540
# 291355
# 307335
#
# Disc length: 4317 seconds
#
#
# Revision: 0
# Processed by: cddbd v1.5.1PL2 Copyright (c) Steve Scherf et al.
# Submitted via: FreeRIP 2.945 
#
DISCID=c010db0e
DTITLE=Brass Construction - Meus Momentos
DYEAR=1997
DGENRE=Funk
TTITLE0=Help Yourself
TTITLE1=Changin
TTITLE2=What s On Your Mind
TTITLE3=Get Up To Get Down
TTITLE4=Perceptions ( What s The Right Direction )
TTITLE5=Walki n The Line
TTITLE6=HA Cha Cha
TTITLE7=Waaake Up
TTITLE8=Love
TTITLE9=Goodnews
TTITLE10=Give and Take
TTITLE11=Movin
TTITLE12=Can You See The Light
TTITLE13=L O V E U
EXTD=
EXTT0=
EXTT1=
EXTT2=
EXTT3=
EXTT4=
EXTT5=
EXTT6=
EXTT7=
EXTT8=
EXTT9=
EXTT10=
EXTT11=
EXTT12=
EXTT13=
PLAYORDER=
